<svg width="36" height="36" viewBox="0 0 36 36" fill="none" xmlns="http://www.w3.org/2000/svg">
<path d="M22.2484 4.5C21.709 4.5 21.2123 4.69609 20.8492 5.06494C20.4861 5.43379 20.2931 5.93825 20.2931 6.48626V7.96955C19.4576 7.34221 18.4243 6.97131 17.3056 6.97131C14.5272 6.97131 12.2749 9.2592 12.2749 12.0815V20.2577C12.2749 23.0799 14.5272 25.3678 17.3056 25.3678C20.084 25.3678 22.3363 23.0799 22.3363 20.2577V16.154C22.8421 16.1338 23.3008 15.9388 23.6393 15.5907C23.996 15.2238 24.1814 14.7258 24.1814 14.1923V12.4784C24.1814 12.3562 24.2789 12.2571 24.3992 12.2571H25.8395C26.3654 12.2571 26.8498 12.0684 27.2049 11.7123C27.5603 11.3559 27.75 10.8678 27.75 10.3393C27.75 9.80352 27.5629 9.31209 27.2019 8.95471C26.8427 8.59905 26.3573 8.4214 25.8395 8.4214H24.3992C24.2789 8.4214 24.1814 8.32231 24.1814 8.20008V6.48626C24.1814 5.94647 23.9994 5.44275 23.6421 5.07077C23.2833 4.69717 22.7892 4.5 22.2484 4.5ZM21.6003 6.48626C21.6003 6.25911 21.6766 6.10241 21.7736 6.00389C21.8706 5.90536 22.0248 5.82787 22.2484 5.82787C22.4708 5.82787 22.6164 5.90428 22.7064 5.99806C22.798 6.09346 22.8742 6.2509 22.8742 6.48626V8.20008C22.8742 9.05567 23.557 9.74926 24.3992 9.74926H25.8395C26.0624 9.74926 26.2054 9.8224 26.2895 9.90561C26.3718 9.98712 26.4428 10.1226 26.4428 10.3393C26.4428 10.5403 26.3744 10.6792 26.2865 10.7674C26.1983 10.8558 26.0542 10.9293 25.8395 10.9293H24.3992C23.557 10.9293 22.8742 11.6229 22.8742 12.4784V14.1923C22.8742 14.4111 22.8014 14.5629 22.7092 14.6576C22.6183 14.7511 22.4711 14.8279 22.2484 14.8279C21.8387 14.8279 21.6003 14.5703 21.6003 14.1923V12.4784C21.6003 11.6229 20.9175 10.9293 20.0752 10.9293H18.6349C18.437 10.9293 18.3003 10.8598 18.2135 10.7705C18.1264 10.6809 18.0541 10.5346 18.0541 10.3165C18.0541 10.1165 18.1216 9.98485 18.2045 9.90284C18.289 9.81925 18.4282 9.74926 18.6349 9.74926H20.0752C20.9175 9.74926 21.6003 9.05567 21.6003 8.20008V6.48626Z" fill="white"/>
<path d="M24.3481 16.1696C24.3481 15.6051 24.7986 15.1475 25.3542 15.1475C25.9099 15.1475 26.3604 15.6051 26.3604 16.1696V20.2577C26.3582 24.9406 22.8928 28.8743 18.3113 29.3946V31.5H16.2991V29.3946C11.7175 28.8743 8.25219 24.9406 8.25 20.2577V16.1696C8.25 15.6051 8.70046 15.1475 9.25613 15.1475C9.8118 15.1475 10.2623 15.6051 10.2623 16.1696V20.2577C10.2623 24.2088 13.4155 27.4119 17.3052 27.4119C21.1949 27.4119 24.3481 24.2088 24.3481 20.2577V16.1696Z" fill="white"/>
</svg>
